<svg width="64" height="64" viewBox="0 0 64 64" fill="none" xmlns="http://www.w3.org/2000/svg">
<circle cx="32" cy="32" r="28" fill="#151B26"/>
<path d="M31.3345 17.249C31.544 16.6041 32.4564 16.6041 32.6659 17.249L35.6149 26.3249C35.7086 26.6133 35.9774 26.8086 36.2806 26.8086H45.8236C46.5017 26.8086 46.7836 27.6763 46.235 28.0749L38.5146 33.6841C38.2693 33.8624 38.1666 34.1783 38.2603 34.4667L41.2092 43.5426C41.4188 44.1875 40.6807 44.7238 40.1321 44.3252L32.4116 38.716C32.1663 38.5378 31.8341 38.5378 31.5887 38.716L23.8683 44.3252C23.3197 44.7238 22.5816 44.1875 22.7911 43.5426L25.7401 34.4667C25.8338 34.1783 25.7311 33.8624 25.4858 33.6841L17.7654 28.0749C17.2168 27.6763 17.4987 26.8086 18.1768 26.8086H27.7198C28.023 26.8086 28.2918 26.6133 28.3855 26.3249L31.3345 17.249Z" fill="url(#paint0_linear_795_920)"/>
<defs>
<linearGradient id="paint0_linear_795_920" x1="46.4002" y1="18.2546" x2="18.2547" y2="46.6183" gradientUnits="userSpaceOnUse">
<stop stop-color="#5390E3"/>
<stop offset="1" stop-color="#1357B3"/>
</linearGradient>
</defs>
</svg>
